<svg xmlns="http://www.w3.org/2000/svg" xmlns:xlink="http://www.w3.org/1999/xlink" width="1000" zoomAndPan="magnify" viewBox="0 0 750 225" height="300" preserveAspectRatio="xMidYMid meet" version="1.0"><defs><g/><clipPath id="5255a0a957"><path d="M 15.03125 101.910156 L 734.96875 101.910156 L 734.96875 196.640625 L 15.03125 196.640625 Z M 15.03125 101.910156 " clip-rule="nonzero"/></clipPath><clipPath id="b63e87c06c"><path d="M 36.03125 101.910156 L 713.96875 101.910156 C 725.566406 101.910156 734.96875 111.3125 734.96875 122.910156 L 734.96875 175.640625 C 734.96875 187.238281 725.566406 196.640625 713.96875 196.640625 L 36.03125 196.640625 C 24.433594 196.640625 15.03125 187.238281 15.03125 175.640625 L 15.03125 122.910156 C 15.03125 111.3125 24.433594 101.910156 36.03125 101.910156 Z M 36.03125 101.910156 " clip-rule="nonzero"/></clipPath><clipPath id="f34b20c2c1"><path d="M 53.085938 23.289062 L 394.109375 23.289062 L 394.109375 118.019531 L 53.085938 118.019531 Z M 53.085938 23.289062 " clip-rule="nonzero"/></clipPath><clipPath id="21b6cb2046"><path d="M 74.085938 23.289062 L 373.109375 23.289062 C 384.707031 23.289062 394.109375 32.691406 394.109375 44.289062 L 394.109375 97.019531 C 394.109375 108.617188 384.707031 118.019531 373.109375 118.019531 L 74.085938 118.019531 C 62.488281 118.019531 53.085938 108.617188 53.085938 97.019531 L 53.085938 44.289062 C 53.085938 32.691406 62.488281 23.289062 74.085938 23.289062 Z M 74.085938 23.289062 " clip-rule="nonzero"/></clipPath></defs><g clip-path="url(#5255a0a957)"><g clip-path="url(#b63e87c06c)"><path fill="#1d066c" d="M 15.03125 101.910156 L 734.96875 101.910156 L 734.96875 196.640625 L 15.03125 196.640625 Z M 15.03125 101.910156 " fill-opacity="1" fill-rule="nonzero"/></g></g><g clip-path="url(#f34b20c2c1)"><g clip-path="url(#21b6cb2046)"><path fill="#d8d8d8" d="M 53.085938 23.289062 L 394.109375 23.289062 L 394.109375 118.019531 L 53.085938 118.019531 Z M 53.085938 23.289062 " fill-opacity="1" fill-rule="nonzero"/></g></g><path fill="#000000" d="M 203.605469 76.472656 C 203.605469 71.253906 203.605469 66.054688 203.605469 60.835938 C 203.605469 60.496094 203.589844 60.152344 203.644531 59.832031 C 203.816406 58.578125 204.460938 57.6875 205.699219 57.269531 C 209.632812 55.902344 213.660156 54.992188 217.824219 54.652344 C 220.75 54.402344 223.675781 54.421875 226.585938 54.859375 C 228.714844 55.183594 230.765625 55.75 232.667969 56.757812 C 236.390625 58.710938 238.464844 61.84375 239.167969 65.941406 C 239.355469 67.003906 239.414062 68.066406 239.414062 69.128906 C 239.414062 76.910156 239.414062 84.667969 239.414062 92.449219 C 239.414062 92.601562 239.414062 92.753906 239.414062 92.902344 C 239.375 94.003906 238.882812 94.535156 237.78125 94.554688 C 235.460938 94.574219 233.140625 94.574219 230.824219 94.554688 C 229.777344 94.554688 229.265625 94.023438 229.1875 92.980469 C 229.171875 92.714844 229.1875 92.429688 229.1875 92.164062 C 229.1875 85.085938 229.1875 78.027344 229.1875 70.949219 C 229.1875 70.039062 229.132812 69.109375 228.847656 68.238281 C 228.066406 65.921875 226.339844 64.707031 224.058594 64.195312 C 222.175781 63.777344 220.292969 63.910156 218.394531 64.101562 C 217.519531 64.175781 216.644531 64.367188 215.789062 64.574219 C 214.308594 64.917969 213.871094 65.484375 213.871094 67.003906 C 213.871094 75.410156 213.871094 83.835938 213.871094 92.238281 C 213.871094 92.488281 213.871094 92.734375 213.871094 92.980469 C 213.832031 94.003906 213.300781 94.554688 212.253906 94.574219 C 211.039062 94.59375 209.804688 94.574219 208.585938 94.574219 C 207.523438 94.574219 206.4375 94.59375 205.375 94.574219 C 204.121094 94.554688 203.605469 94.023438 203.605469 92.769531 C 203.605469 87.324219 203.605469 81.898438 203.605469 76.472656 Z M 203.605469 76.472656 " fill-opacity="1" fill-rule="nonzero"/><path fill="#000000" d="M 145.050781 94.554688 C 143.890625 94.554688 142.730469 94.574219 141.570312 94.554688 C 140.394531 94.535156 139.992188 94.003906 140.316406 92.828125 C 140.546875 91.972656 140.734375 91.121094 140.753906 90.230469 C 140.792969 87.972656 139.859375 86.226562 138.054688 84.933594 C 136.726562 83.984375 135.242188 83.339844 133.703125 82.847656 C 131.15625 82.03125 128.570312 81.273438 126.023438 80.457031 C 123.953125 79.792969 121.976562 78.957031 120.171875 77.722656 C 117.128906 75.636719 115.609375 72.753906 115.4375 69.089844 C 115.117188 62.46875 118.800781 57.589844 124.867188 55.429688 C 127.660156 54.441406 130.566406 54.101562 133.511719 54.175781 C 138.207031 54.308594 142.710938 55.238281 146.96875 57.25 C 147.578125 57.535156 148.167969 57.839844 148.757812 58.179688 C 149.972656 58.863281 150.277344 59.71875 149.761719 61.007812 C 149.574219 61.480469 149.34375 61.957031 149.136719 62.429688 C 148.546875 63.664062 147.976562 64.917969 147.367188 66.148438 C 146.683594 67.554688 145.582031 67.933594 144.214844 67.191406 C 141.933594 65.960938 139.574219 64.898438 137.027344 64.289062 C 134.539062 63.703125 132.03125 63.453125 129.503906 64.023438 C 128.722656 64.195312 127.980469 64.480469 127.316406 64.933594 C 125.378906 66.28125 125.300781 68.636719 127.144531 70.097656 C 127.964844 70.742188 128.914062 71.160156 129.902344 71.519531 C 132.277344 72.390625 134.75 72.980469 137.164062 73.71875 C 139.40625 74.402344 141.628906 75.179688 143.699219 76.300781 C 145.125 77.078125 146.457031 77.988281 147.597656 79.148438 C 150.011719 81.59375 151.054688 84.613281 151.152344 87.988281 C 151.207031 89.507812 151.074219 91.027344 150.65625 92.503906 C 150.597656 92.734375 150.523438 92.980469 150.449219 93.207031 C 150.066406 94.234375 149.609375 94.554688 148.527344 94.574219 C 147.367188 94.574219 146.210938 94.554688 145.050781 94.554688 Z M 145.050781 94.554688 " fill-opacity="1" fill-rule="nonzero"/><path fill="#000000" d="M 294.191406 73.71875 C 294.191406 67.6875 294.171875 61.652344 294.191406 55.617188 C 294.191406 52.941406 294.609375 50.34375 295.671875 47.859375 C 297.535156 43.550781 300.917969 41.082031 305.421875 40.078125 C 308.597656 39.375 311.789062 39.375 314.964844 40.039062 C 315.019531 40.058594 315.078125 40.058594 315.132812 40.078125 C 316.691406 40.4375 317.035156 40.949219 316.730469 42.542969 C 316.464844 43.929688 316.21875 45.296875 315.953125 46.664062 C 315.683594 48.085938 315.191406 48.445312 313.726562 48.238281 C 312.585938 48.085938 311.429688 47.875 310.269531 47.894531 C 309.621094 47.914062 308.976562 47.992188 308.367188 48.140625 C 306.050781 48.691406 304.699219 50.382812 304.433594 52.941406 C 304.375 53.492188 304.359375 54.042969 304.339844 54.59375 C 304.320312 55.238281 304.320312 55.257812 304.964844 55.257812 C 306.714844 55.257812 308.445312 55.257812 310.191406 55.257812 C 311.484375 55.257812 312.757812 55.257812 314.050781 55.257812 C 315.4375 55.257812 315.914062 55.75 315.933594 57.136719 C 315.953125 58.789062 315.953125 60.417969 315.933594 62.070312 C 315.933594 63.453125 315.4375 63.910156 314.03125 63.910156 C 311.125 63.910156 308.234375 63.910156 305.328125 63.910156 C 305.117188 63.910156 304.910156 63.910156 304.679688 63.910156 C 304.453125 63.910156 304.359375 64.023438 304.359375 64.253906 C 304.359375 64.5 304.359375 64.746094 304.359375 64.992188 C 304.359375 74.101562 304.339844 83.207031 304.375 92.335938 C 304.375 93.851562 303.996094 94.613281 302.171875 94.554688 C 300.15625 94.5 298.144531 94.5 296.128906 94.554688 C 294.722656 94.59375 294.171875 93.777344 294.191406 92.621094 C 294.207031 86.339844 294.191406 80.019531 294.191406 73.71875 Z M 294.191406 73.71875 " fill-opacity="1" fill-rule="nonzero"/><path fill="#000000" d="M 331.972656 74.898438 C 331.972656 80.644531 331.972656 86.414062 331.972656 92.164062 C 331.972656 92.355469 331.972656 92.523438 331.972656 92.714844 C 331.953125 94.082031 331.480469 94.554688 330.074219 94.554688 C 328.304688 94.554688 326.539062 94.554688 324.75 94.554688 C 324.257812 94.554688 323.78125 94.574219 323.289062 94.554688 C 322.355469 94.515625 321.824219 94.023438 321.730469 93.09375 C 321.691406 92.828125 321.710938 92.542969 321.710938 92.277344 C 321.710938 80.703125 321.710938 69.128906 321.710938 57.535156 C 321.710938 55.675781 322.128906 55.277344 323.953125 55.277344 C 326.003906 55.277344 328.039062 55.277344 330.09375 55.277344 C 331.460938 55.277344 331.953125 55.769531 331.972656 57.15625 C 331.972656 63.074219 331.972656 68.976562 331.972656 74.898438 Z M 331.972656 74.898438 " fill-opacity="1" fill-rule="nonzero"/><path fill="#7a00e6" d="M 332.296875 45.050781 C 332.316406 47.648438 331.023438 49.546875 328.761719 50.191406 C 327.507812 50.550781 326.234375 50.53125 324.980469 50.171875 C 322.453125 49.433594 321.292969 47.328125 321.367188 44.6875 C 321.386719 44.269531 321.445312 43.835938 321.539062 43.417969 C 322.015625 41.464844 323.230469 40.210938 325.1875 39.753906 C 326.480469 39.453125 327.792969 39.507812 329.066406 39.964844 C 331.0625 40.683594 332.03125 42.183594 332.277344 44.234375 C 332.316406 44.5 332.296875 44.785156 332.296875 45.050781 Z M 332.296875 45.050781 " fill-opacity="1" fill-rule="nonzero"/><path fill="#7a00e6" d="M 125.757812 89.886719 C 125.71875 90.476562 125.703125 91.007812 125.570312 91.558594 C 125.015625 93.625 123.667969 94.839844 121.597656 95.238281 C 120.511719 95.445312 119.410156 95.390625 118.347656 95.046875 C 116.65625 94.5 115.515625 93.398438 115.058594 91.671875 C 114.714844 90.378906 114.734375 89.070312 115.152344 87.800781 C 115.703125 86.148438 116.863281 85.105469 118.554688 84.667969 C 119.734375 84.367188 120.914062 84.402344 122.089844 84.707031 C 124.144531 85.238281 125.53125 86.890625 125.71875 89.015625 C 125.738281 89.316406 125.757812 89.621094 125.757812 89.886719 Z M 125.757812 89.886719 " fill-opacity="1" fill-rule="nonzero"/><path fill="#000000" d="M 194.046875 60.265625 C 193.972656 58.804688 193.324219 57.78125 191.878906 57.324219 C 191.785156 57.308594 191.710938 57.269531 191.613281 57.230469 C 187.8125 55.828125 183.917969 54.917969 179.867188 54.613281 C 177 54.402344 174.128906 54.386719 171.316406 55.050781 C 164.378906 56.679688 159.628906 60.78125 157.421875 67.589844 C 155.710938 72.886719 155.902344 78.238281 157.667969 83.472656 C 158.980469 87.382812 161.414062 90.476562 165.023438 92.582031 C 167.875 94.25 170.992188 95.046875 174.242188 95.238281 C 177.988281 95.464844 181.675781 95.179688 185.34375 94.347656 C 187.640625 93.816406 189.867188 93.09375 192.03125 92.183594 C 193.25 91.671875 193.914062 90.777344 194.027344 89.46875 C 194.046875 89.167969 194.046875 88.863281 194.046875 88.558594 C 194.046875 83.96875 194.046875 79.355469 194.046875 74.765625 C 194.046875 70.191406 194.046875 65.617188 194.046875 61.0625 C 194.046875 60.816406 194.066406 60.53125 194.046875 60.265625 Z M 182.359375 85.011719 C 179.46875 85.921875 176.503906 86.300781 173.519531 85.523438 C 170.554688 84.746094 168.542969 82.847656 167.554688 79.980469 C 166.394531 76.660156 166.375 73.265625 167.535156 69.945312 C 168.824219 66.261719 171.582031 64.347656 175.441406 64.003906 C 177.492188 63.835938 179.527344 64.023438 181.523438 64.554688 C 181.75 64.613281 181.996094 64.6875 182.226562 64.765625 C 183.402344 65.199219 183.804688 65.75 183.820312 67.023438 C 183.839844 69.679688 183.820312 72.316406 183.820312 74.972656 C 183.820312 77.589844 183.804688 80.210938 183.820312 82.828125 C 183.820312 83.929688 183.367188 84.6875 182.359375 85.011719 Z M 182.359375 85.011719 " fill-opacity="1" fill-rule="nonzero"/><path fill="#000000" d="M 285.730469 68.425781 C 283.984375 62.355469 280.257812 58.027344 274.289062 55.808594 C 270.488281 54.402344 266.554688 54.136719 262.5625 54.859375 C 256.558594 55.941406 252.015625 59.128906 249.316406 64.613281 C 246.3125 70.722656 246.160156 77.058594 248.519531 83.398438 C 250.550781 88.882812 254.503906 92.488281 260.054688 94.308594 C 263.378906 95.390625 266.820312 95.617188 270.28125 95.105469 C 276.457031 94.214844 281.132812 91.082031 284.097656 85.578125 C 285.882812 82.257812 286.566406 78.671875 286.585938 74.136719 C 286.566406 72.714844 286.339844 70.550781 285.730469 68.425781 Z M 275.257812 80.246094 C 273.71875 84.441406 270.050781 86.226562 266.023438 85.84375 C 264.976562 85.75 263.96875 85.5625 263 85.164062 C 260.664062 84.195312 259.085938 82.488281 258.25 80.132812 C 257.015625 76.625 257.015625 73.074219 258.289062 69.582031 C 259.617188 65.921875 262.695312 63.890625 266.613281 63.949219 C 267.523438 63.96875 268.4375 64.042969 269.328125 64.269531 C 272.238281 65.03125 274.234375 66.832031 275.257812 69.601562 C 276.550781 73.152344 276.550781 76.738281 275.257812 80.246094 Z M 275.257812 80.246094 " fill-opacity="1" fill-rule="nonzero"/><g fill="#ffffff" fill-opacity="1"><g transform="translate(55.491988, 174.15962)"><g><path d="M 16.222656 0.691406 C 24.429688 0.691406 29.476562 -3.214844 29.476562 -9.742188 C 29.476562 -15.234375 25.867188 -18.496094 17.261719 -20.523438 C 11.96875 -21.761719 10.136719 -23.097656 10.136719 -25.222656 C 10.136719 -27.496094 12.167969 -28.882812 15.480469 -28.882812 C 19.089844 -28.882812 21.265625 -27.003906 21.265625 -23.886719 L 28.832031 -23.886719 C 28.832031 -30.859375 23.589844 -35.3125 15.378906 -35.3125 C 7.417969 -35.3125 2.472656 -31.40625 2.472656 -25.074219 C 2.472656 -19.4375 6.28125 -16.074219 14.390625 -14.34375 C 19.289062 -13.304688 21.511719 -11.871094 21.511719 -9.445312 C 21.511719 -7.121094 19.4375 -5.785156 16.171875 -5.785156 C 12.363281 -5.785156 9.890625 -7.714844 9.890625 -11.027344 L 2.175781 -11.027344 C 2.175781 -3.859375 7.515625 0.691406 16.222656 0.691406 Z M 16.222656 0.691406 "/></g></g></g><g fill="#ffffff" fill-opacity="1"><g transform="translate(87.188352, 174.15962)"><g><path d="M 3.757812 0 L 11.277344 0 L 11.277344 -14.046875 C 11.277344 -17.804688 13.351562 -20.226562 16.566406 -20.226562 C 19.683594 -20.226562 21.613281 -17.902344 21.613281 -14.242188 L 21.613281 0 L 29.03125 0 L 29.03125 -14.046875 C 29.03125 -17.804688 31.109375 -20.226562 34.324219 -20.226562 C 37.4375 -20.226562 39.367188 -17.902344 39.367188 -14.242188 L 39.367188 0 L 46.882812 0 L 46.882812 -15.132812 C 46.882812 -22.253906 42.632812 -26.65625 36.003906 -26.65625 C 32.046875 -26.65625 28.785156 -25.125 26.65625 -22.402344 C 24.828125 -25.171875 21.808594 -26.65625 18.101562 -26.65625 C 14.789062 -26.65625 11.96875 -25.519531 10.089844 -23.292969 L 9.347656 -25.964844 L 3.757812 -25.964844 Z M 3.757812 0 "/></g></g></g><g fill="#ffffff" fill-opacity="1"><g transform="translate(137.328942, 174.15962)"><g><path d="M 12.414062 0.496094 C 16.269531 0.496094 19.4375 -0.742188 21.660156 -3.015625 L 22.503906 0 L 28.089844 0 L 28.089844 -15.628906 C 28.089844 -22.503906 23.441406 -26.65625 15.675781 -26.65625 C 9.050781 -26.65625 4.699219 -23.492188 3.757812 -17.855469 L 10.980469 -17.855469 C 11.425781 -19.683594 13.304688 -20.917969 15.726562 -20.917969 C 18.695312 -20.917969 20.722656 -19.238281 20.722656 -16.667969 L 20.722656 -15.480469 L 11.324219 -15.480469 C 5.933594 -15.480469 2.472656 -12.363281 2.472656 -7.566406 C 2.472656 -2.570312 6.28125 0.496094 12.414062 0.496094 Z M 9.890625 -7.863281 C 9.890625 -9.644531 11.375 -10.78125 13.648438 -10.78125 L 20.773438 -10.78125 C 20.625 -7.269531 17.902344 -4.894531 14.144531 -4.894531 C 11.574219 -4.894531 9.890625 -6.082031 9.890625 -7.863281 Z M 9.890625 -7.863281 "/></g></g></g><g fill="#ffffff" fill-opacity="1"><g transform="translate(168.679174, 174.15962)"><g><path d="M 3.757812 0 L 11.277344 0 L 11.277344 -11.472656 C 11.277344 -17.0625 13.898438 -19.140625 18.199219 -19.140625 L 21.066406 -19.140625 L 21.066406 -25.964844 L 18.25 -25.964844 C 14.441406 -25.964844 12.019531 -24.925781 10.335938 -22.503906 L 9.347656 -25.964844 L 3.757812 -25.964844 Z M 3.757812 0 "/></g></g></g><g fill="#ffffff" fill-opacity="1"><g transform="translate(191.425401, 174.15962)"><g><path d="M 16.269531 0 L 21.019531 0 L 21.019531 -6.527344 L 17.902344 -6.527344 C 14.9375 -6.527344 13.550781 -7.960938 13.550781 -10.980469 L 13.550781 -19.832031 L 20.671875 -19.832031 L 20.671875 -25.964844 L 13.550781 -25.964844 L 13.550781 -32.691406 L 7.714844 -32.691406 L 7.269531 -29.328125 C 6.875 -26.65625 6.132812 -25.964844 3.3125 -25.964844 L 0.988281 -25.964844 L 0.988281 -19.832031 L 6.035156 -19.832031 L 6.035156 -9.839844 C 6.035156 -3.511719 9.695312 0 16.269531 0 Z M 16.269531 0 "/></g></g></g><g fill="#ffffff" fill-opacity="1"><g transform="translate(214.51776, 174.15962)"><g><path d="M 4.15625 0 L 11.96875 0 L 11.96875 -21.214844 L 27.25 0 L 33.925781 0 L 33.925781 -34.621094 L 26.113281 -34.621094 L 26.113281 -13.550781 L 10.832031 -34.621094 L 4.15625 -34.621094 Z M 4.15625 0 "/></g></g></g><g fill="#ffffff" fill-opacity="1"><g transform="translate(252.592954, 174.15962)"><g><path d="M 16.519531 0.691406 C 25.125 0.691406 31.058594 -4.894531 31.058594 -13.007812 C 31.058594 -21.066406 25.125 -26.65625 16.519531 -26.65625 C 7.863281 -26.65625 1.929688 -21.066406 1.929688 -13.007812 C 1.929688 -4.894531 7.863281 0.691406 16.519531 0.691406 Z M 9.347656 -13.007812 C 9.347656 -17.261719 12.316406 -20.226562 16.519531 -20.226562 C 20.722656 -20.226562 23.640625 -17.261719 23.640625 -13.007812 C 23.640625 -8.753906 20.722656 -5.785156 16.519531 -5.785156 C 12.316406 -5.785156 9.347656 -8.753906 9.347656 -13.007812 Z M 9.347656 -13.007812 "/></g></g></g><g fill="#ffffff" fill-opacity="1"><g transform="translate(285.574978, 174.15962)"><g><path d="M 16.269531 0 L 21.019531 0 L 21.019531 -6.527344 L 17.902344 -6.527344 C 14.9375 -6.527344 13.550781 -7.960938 13.550781 -10.980469 L 13.550781 -19.832031 L 20.671875 -19.832031 L 20.671875 -25.964844 L 13.550781 -25.964844 L 13.550781 -32.691406 L 7.714844 -32.691406 L 7.269531 -29.328125 C 6.875 -26.65625 6.132812 -25.964844 3.3125 -25.964844 L 0.988281 -25.964844 L 0.988281 -19.832031 L 6.035156 -19.832031 L 6.035156 -9.839844 C 6.035156 -3.511719 9.695312 0 16.269531 0 Z M 16.269531 0 "/></g></g></g><g fill="#ffffff" fill-opacity="1"><g transform="translate(308.667337, 174.15962)"><g><path d="M 12.414062 0.496094 C 16.269531 0.496094 19.4375 -0.742188 21.660156 -3.015625 L 22.503906 0 L 28.089844 0 L 28.089844 -15.628906 C 28.089844 -22.503906 23.441406 -26.65625 15.675781 -26.65625 C 9.050781 -26.65625 4.699219 -23.492188 3.757812 -17.855469 L 10.980469 -17.855469 C 11.425781 -19.683594 13.304688 -20.917969 15.726562 -20.917969 C 18.695312 -20.917969 20.722656 -19.238281 20.722656 -16.667969 L 20.722656 -15.480469 L 11.324219 -15.480469 C 5.933594 -15.480469 2.472656 -12.363281 2.472656 -7.566406 C 2.472656 -2.570312 6.28125 0.496094 12.414062 0.496094 Z M 9.890625 -7.863281 C 9.890625 -9.644531 11.375 -10.78125 13.648438 -10.78125 L 20.773438 -10.78125 C 20.625 -7.269531 17.902344 -4.894531 14.144531 -4.894531 C 11.574219 -4.894531 9.890625 -6.082031 9.890625 -7.863281 Z M 9.890625 -7.863281 "/></g></g></g><g fill="#ffffff" fill-opacity="1"><g transform="translate(691.776128, 191.430112)"><g><path d="M 0.640625 0 L 0.640625 -0.890625 L 3.140625 -0.890625 L 3.140625 -7.859375 L 2.984375 -7.890625 C 2.585938 -7.691406 2.238281 -7.539062 1.9375 -7.4375 C 1.632812 -7.332031 1.242188 -7.226562 0.765625 -7.125 L 0.765625 -8.109375 C 1.234375 -8.210938 1.695312 -8.347656 2.15625 -8.515625 C 2.613281 -8.679688 3.03125 -8.878906 3.40625 -9.109375 L 4.1875 -9.109375 L 4.1875 -0.890625 L 6.40625 -0.890625 L 6.40625 0 Z M 0.640625 0 "/></g></g><g transform="translate(698.569438, 191.430112)"><g><path d="M 1.671875 0.0625 C 1.441406 0.0625 1.253906 -0.00390625 1.109375 -0.140625 C 0.972656 -0.273438 0.90625 -0.453125 0.90625 -0.671875 C 0.90625 -0.878906 0.972656 -1.050781 1.109375 -1.1875 C 1.253906 -1.332031 1.441406 -1.40625 1.671875 -1.40625 C 1.910156 -1.40625 2.097656 -1.335938 2.234375 -1.203125 C 2.378906 -1.078125 2.453125 -0.898438 2.453125 -0.671875 C 2.453125 -0.453125 2.378906 -0.273438 2.234375 -0.140625 C 2.097656 -0.00390625 1.910156 0.0625 1.671875 0.0625 Z M 1.671875 0.0625 "/></g></g><g transform="translate(701.928699, 191.430112)"><g><path d="M 0.640625 0 L 0.640625 -0.890625 L 3.140625 -0.890625 L 3.140625 -7.859375 L 2.984375 -7.890625 C 2.585938 -7.691406 2.238281 -7.539062 1.9375 -7.4375 C 1.632812 -7.332031 1.242188 -7.226562 0.765625 -7.125 L 0.765625 -8.109375 C 1.234375 -8.210938 1.695312 -8.347656 2.15625 -8.515625 C 2.613281 -8.679688 3.03125 -8.878906 3.40625 -9.109375 L 4.1875 -9.109375 L 4.1875 -0.890625 L 6.40625 -0.890625 L 6.40625 0 Z M 0.640625 0 "/></g></g></g><g fill="#ffffff" fill-opacity="1"><g transform="translate(384.046573, 172.74499)"><g><path d="M 4.238281 0 L 28.007812 0 L 28.007812 -6.8125 L 12.210938 -6.8125 L 12.210938 -14.535156 L 26.089844 -14.535156 L 26.089844 -21.246094 L 12.210938 -21.246094 L 12.210938 -28.5625 L 27.453125 -28.5625 L 27.453125 -35.324219 L 4.238281 -35.324219 Z M 4.238281 0 "/></g></g></g><g fill="#ffffff" fill-opacity="1"><g transform="translate(414.622232, 172.74499)"><g><path d="M 1.363281 0 L 10.800781 0 L 15.644531 -7.46875 L 18.621094 -11.960938 L 21.546875 -7.46875 L 26.394531 0 L 35.828125 0 L 23.820312 -18.117188 L 35.222656 -35.324219 L 26.089844 -35.324219 L 18.570312 -23.871094 L 15.339844 -28.765625 L 11.101562 -35.324219 L 1.917969 -35.324219 L 13.371094 -18.066406 Z M 1.363281 0 "/></g></g></g><g fill="#ffffff" fill-opacity="1"><g transform="translate(451.807483, 172.74499)"><g><path d="M 4.238281 0 L 12.261719 0 L 12.261719 -9.839844 L 18.066406 -9.839844 C 26.59375 -9.839844 32.09375 -14.835938 32.09375 -22.558594 C 32.09375 -30.328125 26.59375 -35.324219 18.066406 -35.324219 L 4.238281 -35.324219 Z M 12.210938 -16.753906 L 12.210938 -28.308594 L 17.410156 -28.308594 C 21.597656 -28.308594 23.917969 -26.191406 23.917969 -22.507812 C 23.917969 -18.824219 21.597656 -16.753906 17.410156 -16.753906 Z M 12.210938 -16.753906 "/></g></g></g><g fill="#ffffff" fill-opacity="1"><g transform="translate(485.359983, 172.74499)"><g><path d="M 4.238281 0 L 28.007812 0 L 28.007812 -6.8125 L 12.210938 -6.8125 L 12.210938 -14.535156 L 26.089844 -14.535156 L 26.089844 -21.246094 L 12.210938 -21.246094 L 12.210938 -28.5625 L 27.453125 -28.5625 L 27.453125 -35.324219 L 4.238281 -35.324219 Z M 4.238281 0 "/></g></g></g><g fill="#ffffff" fill-opacity="1"><g transform="translate(515.935642, 172.74499)"><g><path d="M 4.238281 0 L 12.261719 0 L 12.261719 -11 L 17.5625 -11 L 23.871094 0 L 33.15625 0 L 25.835938 -12.261719 C 30.078125 -14.128906 32.550781 -17.964844 32.550781 -23.164062 C 32.550781 -30.683594 27.402344 -35.324219 19.328125 -35.324219 L 4.238281 -35.324219 Z M 12.160156 -17.761719 L 12.160156 -28.460938 L 18.269531 -28.460938 C 22.203125 -28.460938 24.425781 -26.542969 24.425781 -23.113281 C 24.425781 -19.679688 22.203125 -17.761719 18.269531 -17.761719 Z M 12.160156 -17.761719 "/></g></g></g><g fill="#ffffff" fill-opacity="1"><g transform="translate(551.455879, 172.74499)"><g><path d="M 4.238281 0 L 12.261719 0 L 12.261719 -35.324219 L 4.238281 -35.324219 Z M 4.238281 0 "/></g></g></g><g fill="#ffffff" fill-opacity="1"><g transform="translate(567.954627, 172.74499)"><g><path d="M 4.238281 0 L 28.007812 0 L 28.007812 -6.8125 L 12.210938 -6.8125 L 12.210938 -14.535156 L 26.089844 -14.535156 L 26.089844 -21.246094 L 12.210938 -21.246094 L 12.210938 -28.5625 L 27.453125 -28.5625 L 27.453125 -35.324219 L 4.238281 -35.324219 Z M 4.238281 0 "/></g></g></g><g fill="#ffffff" fill-opacity="1"><g transform="translate(598.530297, 172.74499)"><g><path d="M 4.238281 0 L 12.210938 0 L 12.210938 -21.648438 L 27.804688 0 L 34.617188 0 L 34.617188 -35.324219 L 26.644531 -35.324219 L 26.644531 -13.828125 L 11.050781 -35.324219 L 4.238281 -35.324219 Z M 4.238281 0 "/></g></g></g><g fill="#ffffff" fill-opacity="1"><g transform="translate(637.380574, 172.74499)"><g><path d="M 20.4375 0.707031 C 29.722656 0.707031 36.941406 -4.945312 38.707031 -13.523438 L 30.429688 -13.523438 C 28.964844 -9.488281 25.230469 -6.914062 20.589844 -6.914062 C 14.585938 -6.914062 10.34375 -11.304688 10.34375 -17.664062 C 10.34375 -24.019531 14.632812 -28.410156 20.640625 -28.410156 C 25.132812 -28.410156 28.816406 -25.988281 30.175781 -22.101562 L 38.453125 -22.101562 C 36.433594 -30.582031 29.371094 -36.03125 20.386719 -36.03125 C 9.6875 -36.03125 2.171875 -28.460938 2.171875 -17.664062 C 2.171875 -6.863281 9.6875 0.707031 20.4375 0.707031 Z M 20.4375 0.707031 "/></g></g></g><g fill="#ffffff" fill-opacity="1"><g transform="translate(678.097671, 172.74499)"><g><path d="M 4.238281 0 L 28.007812 0 L 28.007812 -6.8125 L 12.210938 -6.8125 L 12.210938 -14.535156 L 26.089844 -14.535156 L 26.089844 -21.246094 L 12.210938 -21.246094 L 12.210938 -28.5625 L 27.453125 -28.5625 L 27.453125 -35.324219 L 4.238281 -35.324219 Z M 4.238281 0 "/></g></g></g></svg>